<?xml version="1.0" encoding="utf-8"?>
<!-- Generator: Adobe Illustrator 14.0.0, SVG Export Plug-In . SVG Version: 6.00 Build 43363)  -->
<!DOCTYPE svg PUBLIC "-//W3C//DTD SVG 1.1//EN" "http://www.w3.org/Graphics/SVG/1.1/DTD/svg11.dtd">
<svg version="1.1" id="Layer_1" xmlns="http://www.w3.org/2000/svg" xmlns:xlink="http://www.w3.org/1999/xlink" x="0px" y="0px"
	 width="2048px" height="2048px" viewBox="0 0 2048 2048" enable-background="new 0 0 2048 2048" xml:space="preserve">
<path stroke="#FFFFFF" d="M0,1421V115c0-31.333,11.667-58.333,35-81C58.334,11.333,85.667,0,117,0h1612
	c31.333,0,58.167,11.333,80.5,34s33.5,49.667,33.5,81v1306c0,31.333-11.167,58.333-33.5,81s-49.167,34-80.5,34H117
	c-31.333,0-58.666-11.333-82-34C11.667,1479.333,0,1452.333,0,1421z M154,1382h1536V154H154V1382z M307,1272V909h203v363H307z
	 M649,1272V496h201v776H649z M993,1272V680h203v592H993z M1333,1272V350h203v922H1333z"/>
</svg>
