<?xml version="1.0" encoding="utf-8"?>
<!-- Generator: Adobe Illustrator 14.0.0, SVG Export Plug-In . SVG Version: 6.00 Build 43363)  -->
<!DOCTYPE svg PUBLIC "-//W3C//DTD SVG 1.1//EN" "http://www.w3.org/Graphics/SVG/1.1/DTD/svg11.dtd">
<svg version="1.1" id="Layer_1" xmlns="http://www.w3.org/2000/svg" xmlns:xlink="http://www.w3.org/1999/xlink" x="0px" y="0px"
	 width="2048px" height="2048px" viewBox="0 0 2048 2048" enable-background="new 0 0 2048 2048" xml:space="preserve">
<path stroke="#FFFFFF" stroke-width="0.8987" d="M1725.408,920.43H115.027c-32.352,0-59.61-11.083-81.777-33.25
	C11.083,865.013,0,838.054,0,806.301c0-31.752,11.083-59.011,33.25-81.777c22.167-22.765,49.426-34.148,81.777-34.148h100.649
	c23.964,35.945,54.818,64.103,92.561,84.473c37.743,20.37,78.782,30.553,123.115,30.553c44.333,0,85.372-10.184,123.115-30.553
	c37.744-20.37,68.597-48.528,92.561-84.473h546.38c23.964,35.945,54.817,64.103,92.561,84.473
	c37.743,20.37,78.782,30.553,123.115,30.553c44.334,0,85.372-10.184,123.115-30.553c37.743-20.37,68.597-48.528,92.562-84.473
	h100.647c32.353,0,59.611,11.383,81.777,34.148c22.168,22.766,33.251,50.025,33.251,81.777c0,31.752-11.083,58.711-33.251,80.878
	C1785.02,909.347,1757.761,920.43,1725.408,920.43z M1448.625,679.592c-22.766,13.181-46.73,16.176-71.893,8.987
	c-25.162-7.189-44.333-22.167-57.514-44.933l-271.393-499.649c-13.18-22.766-16.475-47.03-9.885-72.791
	c6.589-25.762,21.268-45.232,44.033-58.413c22.767-13.18,46.73-16.176,71.893-8.986c25.162,7.189,44.334,22.167,57.514,44.933
	l271.393,499.65c13.181,22.766,16.475,47.029,9.885,72.791C1486.068,646.941,1471.39,666.411,1448.625,679.592z M521.218,643.646
	c-13.181,22.766-32.352,37.744-57.514,44.933c-25.162,7.189-49.126,4.194-71.892-8.987c-22.766-13.181-37.444-32.651-44.034-58.412
	c-6.59-25.762-3.295-50.025,9.885-72.791l271.392-499.65c13.18-22.766,32.352-37.744,57.514-44.933
	c25.162-7.189,49.126-4.194,71.892,8.986c22.766,13.181,37.444,32.651,44.034,58.413c6.59,25.761,3.295,50.025-9.885,72.791
	L521.218,643.646z M1610.382,1725.626c-9.586,47.927-27.259,79.081-53.021,93.459s-65.002,21.567-117.723,21.567H407.987
	c-53.919,0-94.658-7.189-122.216-21.567c-27.559-14.378-46.131-45.532-55.717-93.459l-115.027-690.164h1610.381L1610.382,1725.626z"
	/>
</svg>
