<?xml version="1.0" encoding="utf-8"?>
<!-- Generator: Adobe Illustrator 16.0.0, SVG Export Plug-In . SVG Version: 6.00 Build 0)  -->
<!DOCTYPE svg PUBLIC "-//W3C//DTD SVG 1.1//EN" "http://www.w3.org/Graphics/SVG/1.1/DTD/svg11.dtd">
<svg version="1.1" id="SVG_icon_glyph_Blank" xmlns="http://www.w3.org/2000/svg" xmlns:xlink="http://www.w3.org/1999/xlink"
	 x="0px" y="0px" width="2048px" height="2048px" viewBox="0 0 2048 2048" enable-background="new 0 0 2048 2048"
	 xml:space="preserve">
<path d="M1020.678,10.79c-425.979,0-884.279,128.423-884.279,410.558v1200.093c0,282.012,458.3,410.559,884.279,410.559
	c425.918,0,884.279-128.547,884.279-410.559V421.348C1904.957,139.213,1446.533,10.79,1020.678,10.79z M1778.631,1621.441
	c0,156.92-339.376,284.232-757.953,284.232c-418.639,0-757.954-127.312-757.954-284.232v-235.997
	c130.52,134.468,445.285,204.415,757.954,204.415c312.668,0,627.434-69.947,757.953-204.415V1621.441z M1778.631,1242.465h-0.246
	c0,0.616,0.246,1.356,0.246,1.974c0,155.933-339.376,282.259-757.953,282.259s-757.954-126.326-757.954-282.259
	c0-0.617,0.247-1.357,0.247-1.974h-0.247v-235.997c130.52,134.468,445.285,204.415,757.954,204.415
	c312.668,0,627.434-69.947,757.953-204.415V1242.465z M1778.631,863.487h-0.246c0,0.617,0.246,1.357,0.246,1.974
	c0,155.934-339.376,282.26-757.953,282.26s-757.954-126.326-757.954-282.26c0-0.616,0.247-1.356,0.247-1.974h-0.247V646.488
	c165.556,126.08,468.971,185.418,757.954,185.418s592.398-59.338,757.953-185.418V863.487z M1020.678,705.58
	c-418.639,0-757.954-127.312-757.954-284.232c0-157.043,339.315-284.232,757.954-284.232c418.577,0,757.953,127.189,757.953,284.232
	C1778.631,578.268,1439.255,705.58,1020.678,705.58z M1589.143,1589.859c34.913,0,63.163,28.251,63.163,63.164
	c0,34.911-28.25,63.162-63.163,63.162c-34.912,0-63.162-28.251-63.162-63.162C1525.98,1618.11,1554.23,1589.859,1589.143,1589.859z
	 M1589.143,1210.883c34.913,0,63.163,28.251,63.163,63.163s-28.25,63.163-63.163,63.163c-34.912,0-63.162-28.251-63.162-63.163
	S1554.23,1210.883,1589.143,1210.883z M1589.143,831.906c34.913,0,63.163,28.25,63.163,63.163c0,34.912-28.25,63.162-63.163,63.162
	c-34.912,0-63.162-28.25-63.162-63.162C1525.98,860.156,1554.23,831.906,1589.143,831.906z"/>
</svg>
