<?xml version="1.0" encoding="utf-8"?>
<!-- Generator: Adobe Illustrator 14.0.0, SVG Export Plug-In . SVG Version: 6.00 Build 43363)  -->
<!DOCTYPE svg PUBLIC "-//W3C//DTD SVG 1.1//EN" "http://www.w3.org/Graphics/SVG/1.1/DTD/svg11.dtd">
<svg version="1.1" id="SVG_icon_glyph_Blank" xmlns="http://www.w3.org/2000/svg" xmlns:xlink="http://www.w3.org/1999/xlink"
	 x="0px" y="0px" width="2048px" height="2048px" viewBox="0 0 2048 2048" enable-background="new 0 0 2048 2048"
	 xml:space="preserve">
<path d="M1665.724,1.945h-1408c-70.692,0-128,57.308-128,128v1408c0,70.692,57.308,128,128,128h1408c70.693,0,128-57.308,128-128
	v-1408C1793.724,59.253,1736.418,1.945,1665.724,1.945z M513.725,1537.945h-256v-256h256V1537.945z M513.725,1153.945h-256v-256h256
	V1153.945z M513.725,769.945h-256v-256h256V769.945z M513.725,385.945h-256v-256h256V385.945z M897.725,1537.945h-256v-256h256
	V1537.945z M897.725,1153.945h-256v-256h256V1153.945z M897.725,769.945h-256v-256h256V769.945z M897.725,385.945h-256v-256h256
	V385.945z M1281.724,1537.945h-256v-256h256V1537.945z M1281.724,1153.945h-256v-256h256V1153.945z M1281.724,769.945h-256v-256h256
	V769.945z M1281.724,385.945h-256v-256h256V385.945z M1665.724,1537.945h-256v-256h256V1537.945z M1665.724,1153.945h-256v-256h256
	V1153.945z M1665.724,769.945h-256v-256h256V769.945z M1665.724,385.945h-256v-256h256V385.945z"/>
</svg>
