<?xml version="1.0" encoding="utf-8"?>
<!-- Generator: Adobe Illustrator 14.0.0, SVG Export Plug-In . SVG Version: 6.00 Build 43363)  -->
<!DOCTYPE svg PUBLIC "-//W3C//DTD SVG 1.1//EN" "http://www.w3.org/Graphics/SVG/1.1/DTD/svg11.dtd">
<svg version="1.1" id="Layer_1" xmlns="http://www.w3.org/2000/svg" xmlns:xlink="http://www.w3.org/1999/xlink" x="0px" y="0px"
	 width="2048px" height="2048px" viewBox="0 0 2048 2048" enable-background="new 0 0 2048 2048" xml:space="preserve">
<path d="M1535.681,639.946c-2.645,0-5.279,0.034-7.91,0.087H511.725c-212.053,0-383.956,171.903-383.956,383.956
	c0,212.053,171.903,383.956,383.956,383.956h1023.957c212.076,0,384-171.922,384-384
	C1919.681,811.868,1747.758,639.946,1535.681,639.946z M1535.681,1279.945h-1024c-141.385,0-256-114.614-256-256
	c0-141.385,114.615-256,256-256h1024c141.385,0,256,114.615,256,256C1791.681,1165.331,1677.066,1279.945,1535.681,1279.945z"/>
</svg>
