<?xml version="1.0" encoding="utf-8"?>
<!-- Generator: Adobe Illustrator 14.0.0, SVG Export Plug-In . SVG Version: 6.00 Build 43363)  -->
<!DOCTYPE svg PUBLIC "-//W3C//DTD SVG 1.1//EN" "http://www.w3.org/Graphics/SVG/1.1/DTD/svg11.dtd">
<svg version="1.1" id="Layer_1" xmlns="http://www.w3.org/2000/svg" xmlns:xlink="http://www.w3.org/1999/xlink" x="0px" y="0px"
	 width="2048px" height="2048px" viewBox="0 0 2048 2048" enable-background="new 0 0 2048 2048" xml:space="preserve">
<path d="M1317.674,541.673l-879.121,525.093c-121.381,72.5-161.007,229.672-88.507,351.053
	c72.5,121.382,229.672,161.008,351.053,88.508l879.121-525.094c121.381-72.5,161.007-229.671,88.507-351.053
	C1596.227,508.8,1439.054,469.173,1317.674,541.673z M1514.584,871.344l-879.121,525.093
	c-60.689,36.25-139.276,16.438-175.527-44.253c-36.25-60.691-16.436-139.277,44.254-175.527l879.121-525.093
	c60.69-36.25,139.276-16.437,175.526,44.253S1575.274,835.093,1514.584,871.344z"/>
</svg>
