<?xml version="1.0" encoding="utf-8"?>
<!-- Generator: Adobe Illustrator 14.0.0, SVG Export Plug-In . SVG Version: 6.00 Build 43363)  -->
<!DOCTYPE svg PUBLIC "-//W3C//DTD SVG 1.1//EN" "http://www.w3.org/Graphics/SVG/1.1/DTD/svg11.dtd">
<svg version="1.1" id="SVG_icon_glyph_Blank" xmlns="http://www.w3.org/2000/svg" xmlns:xlink="http://www.w3.org/1999/xlink"
	 x="0px" y="0px" width="2048px" height="2048px" viewBox="0 0 2048 2048" enable-background="new 0 0 2048 2048"
	 xml:space="preserve">
<path d="M1788.031,905.309c24.859-48.122,39.023-96.458,39.023-143.507c0-170.473-104.934-499.804-604.248-548.782
	c-21.393-38.692-45.336-74.228-68.443-103.18c608.418,22.346,769.461,374.433,769.461,655.721c0,81.73-24.508,159.97-66.201,233.109
	C1834.183,967.107,1810.922,935.915,1788.031,905.309z M878.746,395.726c-60.338-62.733-93.497-136.884-136.982-231.062
	C698.279,70.506,528.451,96.63,528.451,96.63S687.427-14.691,818.057,1.635c130.591,16.345,166.75,64.175,220.894,117.303
	c54.141,53.11,144.869,220.366,95.055,287.931C1084.209,474.454,939.121,458.479,878.746,395.726z M689.395,293.482
	c-340.26,156.191-511.083,475.352-542.703,550.165c-17.281,40.875-118.181,360.074,73.956,332.623
	c103.393-30.431,160.028-316.473,496.139-316.473c433.369,0-87.788,571.479,212.242,571.479
	c170.666,0,438.453-117.829,637.31-275.968c27.002,25.989,54.475,52.31,82.236,78.807
	c-223.66,180.778-531.793,295.14-719.546,295.14c-477.593,0,58.175-587.824-212.242-587.824
	c-273.494,0-308.387,309.575-514.181,338.954C-3.205,1309.765-18.441,1045.192,12.049,912.986
	C32.388,771.25,257.84,391.381,646.398,209.044C660.833,238.404,674.978,266.673,689.395,293.482z M1191.693,499.314
	c90.807-90.361,150.326,0,150.326,0s689.074,859.778,651.473,897.146c-37.6,37.406-801.799-747.658-801.799-747.658
	S1110.256,580.282,1191.693,499.314z"/>
</svg>
