<?xml version="1.0" encoding="utf-8"?>
<!-- Generator: Adobe Illustrator 14.0.0, SVG Export Plug-In . SVG Version: 6.00 Build 43363)  -->
<!DOCTYPE svg PUBLIC "-//W3C//DTD SVG 1.1//EN" "http://www.w3.org/Graphics/SVG/1.1/DTD/svg11.dtd">
<svg version="1.1" id="SVG_icon_glyph_Blank" xmlns="http://www.w3.org/2000/svg" xmlns:xlink="http://www.w3.org/1999/xlink"
	 x="0px" y="0px" width="2048px" height="2048px" viewBox="0 0 2048 2048" enable-background="new 0 0 2048 2048"
	 xml:space="preserve">
<path d="M1792,1145.5V896c0-70.692-57.308-128-128-128h-512c-70.692,0-128,57.308-128,128v249.5H896.088H896V896
	c0-70.692-57.308-128-128-128H256c-70.691,0-128,57.308-128,128v249.5H0.088v128H256h512h128.088H1024h128h512h256v-128H1792z
	 M768,1145.5H256V896h512V1145.5z M1664,1145.5h-512V896h512V1145.5z"/>
</svg>
