<?xml version="1.0" encoding="utf-8"?>
<!-- Generator: Adobe Illustrator 14.0.0, SVG Export Plug-In . SVG Version: 6.00 Build 43363)  -->
<!DOCTYPE svg PUBLIC "-//W3C//DTD SVG 1.1//EN" "http://www.w3.org/Graphics/SVG/1.1/DTD/svg11.dtd">
<svg version="1.1" id="Layer_1" xmlns="http://www.w3.org/2000/svg" xmlns:xlink="http://www.w3.org/1999/xlink" x="0px" y="0px"
	 width="2048px" height="2048px" viewBox="0 0 2048 2048" enable-background="new 0 0 2048 2048" xml:space="preserve">
<line fill="none" stroke="#000000" x1="2047.724" y1="2047.945" x2="-0.187" y2="2047.945"/>
<path d="M1918.804,1022.939c0,179.841-53.227,347.155-144.506,487.436l-38.416-24.948l-300.08-194.875
	c50.123-77.015,79.35-168.868,79.35-267.612c0-98.732-29.227-190.597-79.35-267.6l338.496-219.823
	C1865.578,675.795,1918.804,843.1,1918.804,1022.939z M226.378,616.682l359.62,183.235
	c41.625-81.909,106.569-153.151,192.074-202.519c85.515-49.371,179.675-69.988,271.433-65.088l18.727-357.312l2.398-45.745
	c-167.126-8.909-338.638,28.651-494.385,118.572C420.5,337.745,302.223,467.493,226.378,616.682z M1070.629,1916.639
	l-21.123-403.059c-91.748,4.906-185.917-15.715-271.423-65.081c-85.514-49.372-150.45-120.609-192.084-202.524l-318.805,162.438
	l-40.815,20.796c75.847,149.19,194.131,278.943,349.879,368.863C732.002,1887.992,903.506,1925.549,1070.629,1916.639z"/>
</svg>
